<svg id="Layer_1" data-name="Layer 1" xmlns="http://www.w3.org/2000/svg" viewBox="0 0 665.69 613.36"><defs><style>.cls-1{isolation:isolate;}.cls-2{fill:#a3a3a3;}.cls-3{fill:#828282;}.cls-4{fill:gray;}.cls-5{fill:#b4b4b4;}.cls-6{fill:#12223e;}.cls-7{fill:#192f58;}.cls-8{fill:#1f3a6c;}.cls-9{fill:#12223f;}.cls-10{fill:#162a4e;}.cls-11{fill:#a1a1a1;}.cls-12{fill:#dfdfdf;}.cls-13{fill:#142545;}.cls-14{fill:#8e8e8e;}.cls-15{fill:#8f8f8f;}.cls-16{fill:#192f57;}.cls-17{fill:#142646;}.cls-18{fill:#909090;}.cls-19{fill:#142645;}</style></defs><g class="cls-1"><polygon class="cls-2" points="640.17 525.62 617.37 513.22 641.85 484.88 664.64 497.28 640.17 525.62"/><polygon class="cls-3" points="664.64 497.28 641.85 484.88 642 404.55 664.79 416.95 664.64 497.28"/><polygon class="cls-4" points="664.79 416.95 642 404.55 618.29 380.78 641.09 393.18 664.79 416.95"/><polygon class="cls-5" points="544.47 539.07 521.68 526.67 617.37 513.22 640.17 525.62 544.47 539.07"/><polygon class="cls-6" points="544.48 539.07 521.68 526.67 497.96 501.43 520.75 513.83 544.48 539.07"/><polygon class="cls-4" points="544.07 540.1 521.28 527.7 497.07 501.92 519.86 514.32 544.07 540.1"/><polygon class="cls-7" points="544.71 406.72 521.92 394.32 618.29 380.78 641.09 393.18 544.71 406.72"/><polygon class="cls-5" points="544.34 405.81 521.54 393.42 618.68 379.76 641.47 392.16 544.34 405.81"/><polygon class="cls-8" points="641.09 393.18 664.79 416.95 664.64 497.28 640.17 525.62 544.48 539.07 520.75 513.83 520.9 436.44 544.71 406.72 641.09 393.18"/><polygon class="cls-9" points="520.75 513.83 497.96 501.43 498.1 424.04 520.9 436.44 520.75 513.83"/><polygon class="cls-10" points="520.9 436.44 498.1 424.04 521.92 394.32 544.71 406.72 520.9 436.44"/><polygon class="cls-11" points="520.01 436.18 497.21 423.78 521.54 393.42 544.34 405.81 520.01 436.18"/><polygon class="cls-3" points="519.86 514.32 497.07 501.92 497.21 423.78 520.01 436.18 519.86 514.32"/><path class="cls-12" d="M865.86,588.77l24.22,24.28-.15,81.13-25,29-96.45,13.56-24.21-25.78.15-78.14,24.33-30.37ZM889,693.89l.15-80.33-23.71-23.77L769.1,603.33l-23.81,29.72-.15,77.39,23.73,25.24,95.69-13.45L889,693.89" transform="translate(-224.39 -196.61)"/></g><g class="cls-1"><polygon class="cls-4" points="496.27 545.85 473.48 533.45 457.99 492.51 480.78 504.91 496.27 545.85"/><polygon class="cls-5" points="347.29 566.78 324.5 554.38 473.48 533.45 496.27 545.85 347.29 566.78"/><polygon class="cls-13" points="347.29 566.78 324.5 554.38 339.45 509.25 362.25 521.65 347.29 566.78"/><polygon class="cls-14" points="346.01 567.93 323.21 555.53 338.59 509.12 361.38 521.52 346.01 567.93"/><polygon class="cls-5" points="244.79 524.92 222 512.52 263.95 506.62 286.75 519.02 244.79 524.92"/><polygon class="cls-9" points="362.25 521.65 339.45 509.25 339.88 289.54 362.68 301.94 362.25 521.65"/><polygon class="cls-3" points="361.38 521.52 338.59 509.12 338.98 294.72 361.78 307.12 361.38 521.52"/><polygon class="cls-15" points="286.75 519.02 263.95 506.62 339.88 289.54 362.68 301.94 286.75 519.02"/><polygon class="cls-3" points="480.78 504.91 457.99 492.51 458.85 44.89 481.65 57.29 480.78 504.91"/><polygon class="cls-15" points="481.65 57.29 458.85 44.89 474.46 1.15 497.26 13.54 481.65 57.29"/><polygon class="cls-4" points="173.07 591.27 150.28 578.87 134.78 537.93 157.58 550.33 173.07 591.27"/><polygon class="cls-16" points="260.44 227.23 237.64 214.83 248.63 213.55 271.43 225.95 260.44 227.23"/><polygon class="cls-17" points="271.43 225.95 248.63 213.55 318.96 23 341.76 35.4 271.43 225.95"/><polygon class="cls-5" points="261.12 226.44 238.33 214.04 248.04 212.68 270.83 225.08 261.12 226.44"/><polygon class="cls-7" points="341.76 35.4 318.96 23 474.46 1.15 497.26 13.54 341.76 35.4"/><polygon class="cls-18" points="270.83 225.08 248.04 212.68 318.37 22.12 341.17 34.52 270.83 225.08"/><polygon class="cls-5" points="341.17 34.52 318.37 22.12 475.79 0 498.58 12.4 341.17 34.52"/><polygon class="cls-5" points="24.09 612.21 1.3 599.81 150.28 578.87 173.07 591.27 24.09 612.21"/><polygon class="cls-19" points="24.09 612.21 1.3 599.81 16.93 554.58 39.72 566.98 24.09 612.21"/><polygon class="cls-15" points="22.79 613.36 0 600.96 16.07 554.43 38.86 566.83 22.79 613.36"/><polygon class="cls-6" points="244.8 524.92 222 512.52 135.19 318.63 157.99 331.03 244.8 524.92"/><polygon class="cls-4" points="244.22 525.96 221.42 513.56 136.07 322.92 158.87 335.32 244.22 525.96"/><polygon class="cls-3" points="157.58 550.33 134.78 537.93 135.19 318.63 157.99 331.03 157.58 550.33"/><polygon class="cls-4" points="260.56 227.48 237.76 215.08 157.13 45.74 179.92 58.14 260.56 227.48"/><polygon class="cls-9" points="39.72 566.98 16.93 554.58 17.79 106.96 40.59 119.36 39.72 566.98"/><polygon class="cls-3" points="38.86 566.83 16.07 554.43 16.9 107.27 39.69 119.67 38.86 566.83"/><polygon class="cls-8" points="497.26 13.54 481.65 57.29 480.78 504.91 496.28 545.85 347.29 566.78 362.25 521.65 362.68 301.94 286.75 519.02 244.8 524.92 157.99 331.03 157.58 550.33 173.07 591.27 24.09 612.21 39.72 566.98 40.59 119.36 25.09 79.9 179.92 58.14 260.44 227.23 271.43 225.95 341.76 35.4 497.26 13.54"/><polygon class="cls-7" points="25.09 79.9 2.3 67.5 157.13 45.74 179.92 58.14 25.09 79.9"/><polygon class="cls-6" points="40.59 119.36 17.79 106.96 2.3 67.5 25.09 79.9 40.59 119.36"/><polygon class="cls-5" points="23.78 79.13 0.98 66.73 157.69 44.7 180.49 57.1 23.78 79.13"/><polygon class="cls-4" points="39.69 119.67 16.9 107.27 0.98 66.73 23.78 79.13 39.69 119.67"/><path class="cls-12" d="M706.89,254.05l-.83,447.16,15.91,42L570.4,764.54l15.37-46.42.4-214.4L511.75,716.5l-43.14,6.07L383.26,531.93l-.4,214.7,15.91,42L247.18,810l16.07-46.53.84-447.16-15.92-40.54,156.71-22,80.63,169.34,9.72-1.36,70.33-190.56L723,209Zm13.78,488.4-15.5-40.93L706,253.9l15.61-43.75L566.15,232,495.82,422.56,485,424.09,404.31,254.75,249.48,276.51,265,316l-.87,447.62-15.63,45.22,149-20.93L382,746.94l.41-219.3,86.81,193.89,41.95-5.9,75.93-217.08-.43,219.7-15,45.14,149-20.94" transform="translate(-224.39 -196.61)"/></g></svg>